<svg width="32" height="38" viewBox="0 0 32 38" fill="none" xmlns="http://www.w3.org/2000/svg">
<g id="Group 261">
<path id="Vector" d="M28.6316 7.04054C29.5579 7.04054 30.3158 7.81452 30.3158 8.76051V34.5601C30.3158 35.506 29.5579 36.28 28.6316 36.28H3.36842C2.44211 36.28 1.68421 35.506 1.68421 34.5601V8.76051C1.68421 7.81452 2.44211 7.04054 3.36842 7.04054H28.6316ZM28.6316 5.32056H3.36842C1.50737 5.32056 0 6.85994 0 8.76051V34.5601C0 36.4606 1.50737 38 3.36842 38H28.6316C30.4926 38 32 36.4606 32 34.5601V8.76051C32 6.85994 30.4926 5.32056 28.6316 5.32056Z" fill="white"/>
<path id="Vector_2" d="M3.3437 0H10.1479C10.6026 0 10.9648 0.369794 10.9648 0.834185V26.6767C10.9648 27.1411 10.5942 27.5195 10.1395 27.5195H3.3437C2.88896 27.5195 2.52686 27.1497 2.52686 26.6853V0.834185C2.52686 0.369794 2.88896 0 3.3437 0Z" fill="white"/>
<path id="Vector_3" d="M12.5981 7.90052H19.4023C19.857 7.90052 20.2191 8.27032 20.2191 8.73471V34.5773C20.2191 35.0417 19.8486 35.42 19.3939 35.42H12.5981C12.1434 35.42 11.7812 35.0502 11.7812 34.5859V8.73471C11.7812 8.27032 12.1434 7.90052 12.5981 7.90052Z" fill="white"/>
<path id="Vector_4" d="M21.852 7.90052H28.6562C29.1109 7.90052 29.4731 8.27032 29.4731 8.73471V34.5773C29.4731 35.0417 29.1025 35.42 28.6478 35.42H21.852C21.3973 35.42 21.0352 35.0502 21.0352 34.5859V8.73471C21.0352 8.27032 21.3973 7.90052 21.852 7.90052Z" fill="white"/>
</g>
</svg>
