<svg width="228" height="35" viewBox="0 0 228 35" fill="none" xmlns="http://www.w3.org/2000/svg">
<g clip-path="url(#clip0_31_499)">
<path d="M76.0974 3.28549C79.1474 3.28549 81.4094 3.84851 82.8979 4.97456C84.3791 6.1006 85.1234 7.83955 85.1234 10.1985V10.6618C85.1234 11.3103 85.0431 11.9304 84.8826 12.529C84.7221 13.1277 84.4667 13.6765 84.1092 14.1825C83.7516 14.6885 83.2846 15.1303 82.7155 15.5009C82.1464 15.8786 81.4386 16.1709 80.5849 16.3775C81.4605 16.5058 82.2558 16.7267 82.9709 17.0403C83.686 17.3539 84.3062 17.7744 84.8169 18.3018C85.335 18.8363 85.729 19.4635 86.0063 20.2047C86.2836 20.9458 86.4222 21.8153 86.4222 22.8273V23.4474C86.4222 25.8064 85.678 27.638 84.1967 28.9422C82.7155 30.2464 80.417 30.9021 77.3159 30.9021H68.3337C67.0641 30.9021 66.1812 30.6669 65.6923 30.2036C65.2034 29.7404 64.9553 28.8994 64.9553 27.6807V6.50683C64.9553 5.28814 65.1961 4.44717 65.6923 3.98392C66.1812 3.52068 67.0641 3.28549 68.3337 3.28549H76.0901H76.0974ZM70.0119 14.5103H74.1492C75.3166 14.5103 76.2798 14.4533 77.0314 14.3321C77.7902 14.2181 78.3813 14.0185 78.8191 13.7335C79.2569 13.4484 79.556 13.0707 79.7165 12.6074C79.8771 12.1442 79.9573 11.5455 79.9573 10.8186V10.4694C79.9573 9.22929 79.4831 8.40258 78.5491 8.00347C77.6078 7.60437 76.0609 7.40482 73.9157 7.40482H70.0192V14.5103H70.0119ZM70.0119 26.7827H74.6234C75.7398 26.7827 76.7103 26.7471 77.5421 26.6687C78.374 26.5903 79.0671 26.4193 79.6071 26.1413C80.1471 25.8705 80.5557 25.4714 80.8184 24.9583C81.081 24.438 81.2124 23.7538 81.2124 22.8986V22.3926C81.2124 21.7441 81.1029 21.1739 80.8913 20.6822C80.6797 20.1904 80.3076 19.7913 79.7749 19.4777C79.2423 19.1641 78.5272 18.9361 77.6297 18.7793C76.7249 18.6225 75.6012 18.5441 74.2513 18.5441H69.9973V26.7756L70.0119 26.7827Z" fill="#00E37D"/>
<path d="M98.5199 9.80655C101.752 9.80655 104.27 10.6689 106.072 12.3865C107.874 14.1112 108.779 16.6555 108.779 20.0193V20.9886C108.779 24.3525 107.874 26.8968 106.072 28.6215C104.27 30.3462 101.752 31.2014 98.5199 31.2014C95.2875 31.2014 92.7701 30.339 90.9678 28.6215C89.1655 26.8968 88.2607 24.3596 88.2607 20.9886V20.0193C88.2607 16.6555 89.1582 14.1112 90.9678 12.3865C92.7701 10.6618 95.2875 9.80655 98.5199 9.80655ZM98.5199 14.0755C96.7176 14.0755 95.3969 14.553 94.5651 15.5152C93.7333 16.4702 93.3101 18.0024 93.3101 20.0977V20.9102C93.3101 23.0055 93.726 24.5378 94.5651 25.4928C95.3969 26.4478 96.7176 26.9324 98.5199 26.9324C100.322 26.9324 101.643 26.4549 102.475 25.4928C103.307 24.5378 103.73 23.0055 103.73 20.9102V20.0977C103.73 18.0024 103.314 16.4773 102.475 15.5152C101.643 14.5602 100.322 14.0755 98.5199 14.0755Z" fill="#00E37D"/>
<path d="M121.103 9.80655C124.336 9.80655 126.853 10.6689 128.655 12.3865C130.458 14.1112 131.363 16.6555 131.363 20.0193V20.9886C131.363 24.3525 130.458 26.8968 128.655 28.6215C126.853 30.3462 124.336 31.2014 121.103 31.2014C117.871 31.2014 115.354 30.339 113.551 28.6215C111.749 26.8968 110.844 24.3596 110.844 20.9886V20.0193C110.844 16.6555 111.742 14.1112 113.551 12.3865C115.354 10.6618 117.871 9.80655 121.103 9.80655ZM121.103 14.0755C119.301 14.0755 117.98 14.553 117.149 15.5152C116.317 16.4702 115.894 18.0024 115.894 20.0977V20.9102C115.894 23.0055 116.309 24.5378 117.149 25.4928C117.98 26.4478 119.301 26.9324 121.103 26.9324C122.906 26.9324 124.226 26.4549 125.058 25.4928C125.89 24.5378 126.313 23.0055 126.313 20.9102V20.0977C126.313 18.0024 125.897 16.4773 125.058 15.5152C124.226 14.5602 122.906 14.0755 121.103 14.0755Z" fill="#00E37D"/>
<path d="M137.083 2.08105C137.747 2.08105 138.331 2.2521 138.835 2.58706C139.338 2.92202 139.593 3.44228 139.593 4.14072V18.9717L148.145 10.7402C148.649 10.2484 149.24 10.0204 149.911 10.0631C150.59 10.0988 151.151 10.3553 151.604 10.8186C152.056 11.3388 152.282 11.8947 152.297 12.4863C152.312 13.0849 152.049 13.5981 151.524 14.0399L145.642 19.2425L152.56 27.2032C153.034 27.7449 153.224 28.3221 153.114 28.9279C153.005 29.5337 152.706 30.0468 152.202 30.4602C151.669 30.9021 151.071 31.123 150.393 31.123C149.714 31.123 149.152 30.8522 148.7 30.3105L142.06 22.2714L139.593 24.4451V29.0633C139.593 29.7618 139.338 30.282 138.835 30.617C138.331 30.952 137.747 31.123 137.083 31.123C136.419 31.123 135.872 30.952 135.354 30.617C134.836 30.282 134.581 29.7618 134.581 29.0633V4.14072C134.581 3.44228 134.836 2.92202 135.354 2.58706C135.872 2.2521 136.449 2.08105 137.083 2.08105Z" fill="#00E37D"/>
<path d="M158.915 3.05029C159.601 3.05029 160.199 3.22134 160.702 3.5563C161.206 3.89126 161.461 4.44003 161.461 5.18835V26.7043H172.99C173.596 26.7043 174.048 26.911 174.34 27.3244C174.632 27.7377 174.778 28.2295 174.778 28.7996C174.778 29.3698 174.632 29.8615 174.34 30.2749C174.048 30.6882 173.596 30.8949 172.99 30.8949H159.747C158.477 30.8949 157.594 30.6597 157.105 30.1965C156.616 29.7332 156.368 28.8923 156.368 27.6736V5.18835C156.368 4.44003 156.616 3.89126 157.127 3.5563C157.63 3.22134 158.229 3.05029 158.915 3.05029Z" fill="#00E37D"/>
<path d="M179.353 2.00266C180.229 2.00266 180.973 2.28773 181.578 2.85788C182.184 3.42803 182.49 4.12646 182.49 4.95317C182.49 5.77989 182.184 6.47832 181.578 7.04847C180.965 7.61862 180.229 7.90369 179.353 7.90369C178.477 7.90369 177.733 7.61862 177.127 7.04847C176.514 6.47832 176.215 5.77989 176.215 4.95317C176.215 4.12646 176.522 3.42803 177.127 2.85788C177.733 2.28773 178.477 2.00266 179.353 2.00266ZM179.353 10.0418C180.017 10.0418 180.601 10.2128 181.104 10.5478C181.608 10.8827 181.863 11.403 181.863 12.1014V29.0705C181.863 29.7689 181.608 30.2892 181.104 30.6241C180.601 30.9591 180.017 31.1301 179.353 31.1301C178.689 31.1301 178.142 30.9591 177.624 30.6241C177.106 30.2892 176.85 29.7689 176.85 29.0705V12.1014C176.85 11.403 177.106 10.8827 177.624 10.5478C178.142 10.2128 178.718 10.0418 179.353 10.0418Z" fill="#00E37D"/>
<path d="M197.638 9.80655C199.973 9.80655 201.827 10.4765 203.206 11.8092C204.585 13.1419 205.271 15.1161 205.271 17.7316V29.0704C205.271 29.7689 205.015 30.2891 204.512 30.6241C204.009 30.9591 203.425 31.1301 202.761 31.1301C202.097 31.1301 201.55 30.9591 201.031 30.6241C200.513 30.2891 200.258 29.7689 200.258 29.0704V18.7793C200.258 17.8456 200.149 17.0759 199.937 16.4702C199.725 15.8644 199.433 15.3798 199.061 15.0305C198.689 14.6813 198.244 14.4319 197.726 14.2893C197.208 14.1468 196.661 14.0755 196.077 14.0755C195.574 14.0755 195.041 14.1539 194.486 14.3107C193.932 14.4675 193.421 14.7383 192.954 15.1232C192.487 15.508 192.108 16.0283 191.801 16.6768C191.495 17.3254 191.341 18.1307 191.341 19.0857V29.0633C191.341 29.7618 191.086 30.282 190.583 30.617C190.079 30.9519 189.495 31.123 188.831 31.123C188.167 31.123 187.62 30.9519 187.102 30.617C186.584 30.282 186.329 29.7618 186.329 29.0633V12.0159C186.329 11.346 186.569 10.8471 187.066 10.5192C187.554 10.1985 188.102 10.0346 188.715 10.0346C189.328 10.0346 189.875 10.1985 190.364 10.5192C190.853 10.8471 191.101 11.3388 191.101 12.0159V12.7143H191.181C191.502 12.2226 191.896 11.7878 192.37 11.4101C192.845 11.0324 193.37 10.733 193.939 10.4979C194.508 10.2627 195.114 10.0916 195.749 9.97047C196.383 9.85644 197.004 9.7923 197.617 9.7923L197.638 9.80655Z" fill="#00E37D"/>
<path d="M211.954 2.08105C212.618 2.08105 213.202 2.2521 213.706 2.58706C214.209 2.92202 214.465 3.44228 214.465 4.14072V18.9717L223.016 10.7402C223.52 10.2484 224.111 10.0204 224.782 10.0631C225.461 10.0988 226.022 10.3553 226.475 10.8186C226.927 11.3388 227.153 11.8947 227.168 12.4863C227.183 13.0849 226.92 13.5981 226.395 14.0399L220.513 19.2425L227.431 27.2032C227.905 27.7449 228.095 28.3221 227.985 28.9279C227.876 29.5337 227.577 30.0468 227.073 30.4602C226.541 30.9021 225.942 31.123 225.264 31.123C224.585 31.123 224.023 30.8522 223.571 30.3105L216.931 22.2714L214.465 24.4451V29.0633C214.465 29.7618 214.209 30.282 213.706 30.617C213.202 30.952 212.618 31.123 211.954 31.123C211.29 31.123 210.743 30.952 210.225 30.617C209.707 30.282 209.452 29.7618 209.452 29.0633V4.14072C209.452 3.44228 209.707 2.92202 210.225 2.58706C210.743 2.2521 211.32 2.08105 211.954 2.08105Z" fill="#00E37D"/>
<path d="M55.9656 19.0786C55.433 19.5989 54.7325 19.8625 54.032 19.8625C53.3315 19.8625 52.631 19.5989 52.0984 19.0786L39.8326 7.09834C37.432 4.75361 33.521 4.75361 31.1203 7.09834C28.7197 9.44308 28.7197 13.2631 31.1203 15.6078L43.3861 27.5881C44.4514 28.6286 44.4514 30.3248 43.3861 31.3653C42.8534 31.8856 42.153 32.1493 41.4525 32.1493C40.752 32.1493 40.0515 31.8856 39.5188 31.3653L34.2287 26.1983C33.7618 28.2081 32.7183 30.1181 31.1203 31.6789C28.8584 33.8953 25.874 35 22.897 35C19.9199 35 17.118 33.9595 14.8779 31.8642C14.8049 31.8072 14.7393 31.743 14.6736 31.6789L1.72194 19.0287C0.649327 17.9882 0.649327 16.292 1.72194 15.2515C2.78726 14.2038 4.52387 14.2038 5.58919 15.2515L18.5408 27.9016C20.9415 30.2464 24.8525 30.2464 27.2531 27.9016C29.6391 25.564 29.6537 21.7868 27.3042 19.4421C27.2896 19.4278 27.2677 19.4064 27.2531 19.3922C27.2312 19.3708 27.202 19.3423 27.1801 19.3209L14.3015 6.742C13.2361 5.69435 13.2361 4.00529 14.3015 2.95764C15.3741 1.91712 17.1034 1.91712 18.1687 2.95764L24.1447 8.79454C24.619 6.78476 25.6551 4.88189 27.2531 3.32111C31.7916 -1.1118 39.1686 -1.1118 43.7072 3.32111L55.9656 15.3014C57.0382 16.3419 57.0382 18.0309 55.9656 19.0786Z" fill="url(#paint0_linear_31_499)"/>
<path d="M23.8456 24.5734C23.313 25.0937 22.6125 25.3573 21.912 25.3573C21.2115 25.3573 20.511 25.0937 19.9784 24.5734L5.63305 10.562C5.35578 10.6048 5.0785 10.6333 4.78664 10.6333C2.13793 10.6333 0 8.53796 0 5.95091C0 3.37099 2.13793 1.2757 4.78664 1.2757C7.43534 1.2757 9.57327 3.37099 9.57327 5.95091C9.57327 6.23599 9.54408 6.51394 9.5003 6.77763L23.8456 20.7962C24.9182 21.8367 24.9182 23.5257 23.8456 24.5734Z" fill="url(#paint1_linear_31_499)"/>
<path d="M58.826 29.4767C58.826 32.0638 56.6807 34.1519 54.032 34.1519C51.3833 34.1519 49.2454 32.0638 49.2454 29.4767C49.2454 29.1916 49.2673 28.9208 49.3184 28.65L33.8421 13.5339C32.7694 12.4934 32.7694 10.7972 33.8421 9.75668C34.9074 8.70904 36.644 8.70904 37.7093 9.75668L53.1856 24.8728C53.4556 24.83 53.7402 24.8015 54.032 24.8015C56.6807 24.8015 58.826 26.8897 58.826 29.4767Z" fill="url(#paint2_linear_31_499)"/>
</g>
<defs>
<linearGradient id="paint0_linear_31_499" x1="59.3659" y1="34.7434" x2="5.98286" y2="2.7739" gradientUnits="userSpaceOnUse">
<stop stop-color="#00E37D"/>
<stop offset="0.41" stop-color="#00E17C"/>
<stop offset="0.55" stop-color="#00DA7C"/>
<stop offset="0.66" stop-color="#00CE7B"/>
<stop offset="0.74" stop-color="#00BD7A"/>
<stop offset="0.81" stop-color="#00A779"/>
<stop offset="0.88" stop-color="#008C78"/>
<stop offset="0.93" stop-color="#006B76"/>
<stop offset="0.99" stop-color="#004774"/>
<stop offset="1" stop-color="#003C74"/>
</linearGradient>
<linearGradient id="paint1_linear_31_499" x1="57.2645" y1="38.2498" x2="3.88149" y2="6.28031" gradientUnits="userSpaceOnUse">
<stop stop-color="#00E37D"/>
<stop offset="0.41" stop-color="#00E17C"/>
<stop offset="0.55" stop-color="#00DA7C"/>
<stop offset="0.66" stop-color="#00CE7B"/>
<stop offset="0.74" stop-color="#00BD7A"/>
<stop offset="0.81" stop-color="#00A779"/>
<stop offset="0.88" stop-color="#008C78"/>
<stop offset="0.93" stop-color="#006B76"/>
<stop offset="0.99" stop-color="#004774"/>
<stop offset="1" stop-color="#003C74"/>
</linearGradient>
<linearGradient id="paint2_linear_31_499" x1="61.4893" y1="31.2014" x2="8.0989" y2="-0.768213" gradientUnits="userSpaceOnUse">
<stop stop-color="#00E37D"/>
<stop offset="0.41" stop-color="#00E17C"/>
<stop offset="0.55" stop-color="#00DA7C"/>
<stop offset="0.66" stop-color="#00CE7B"/>
<stop offset="0.74" stop-color="#00BD7A"/>
<stop offset="0.81" stop-color="#00A779"/>
<stop offset="0.88" stop-color="#008C78"/>
<stop offset="0.93" stop-color="#006B76"/>
<stop offset="0.99" stop-color="#004774"/>
<stop offset="1" stop-color="#003C74"/>
</linearGradient>
<clipPath id="clip0_31_499">
<rect width="228" height="35" fill="white"/>
</clipPath>
</defs>
</svg>