<svg width="60" height="60" viewBox="0 0 60 60" fill="none" xmlns="http://www.w3.org/2000/svg">
<g id="Group 767">
<circle id="Ellipse 37" cx="30" cy="30" r="29" stroke="#848484" stroke-width="2"/>
<path id="Vector" d="M33.1111 19.1111C32.6986 19.1111 32.3029 18.9472 32.0112 18.6555C31.7194 18.3638 31.5556 17.9681 31.5556 17.5556C31.5556 17.143 31.7194 16.7473 32.0112 16.4556C32.3029 16.1639 32.6986 16 33.1111 16H42.4444C42.857 16 43.2527 16.1639 43.5444 16.4556C43.8361 16.7473 44 17.143 44 17.5556V26.8889C44 27.3014 43.8361 27.6971 43.5444 27.9888C43.2527 28.2806 42.857 28.4444 42.4444 28.4444C42.0319 28.4444 41.6362 28.2806 41.3445 27.9888C41.0528 27.6971 40.8889 27.3014 40.8889 26.8889V21.3107L26.4331 35.7664C26.1397 36.0498 25.7468 36.2066 25.3389 36.203C24.9311 36.1995 24.5409 36.0359 24.2525 35.7475C23.9641 35.4591 23.8005 35.0689 23.797 34.6611C23.7934 34.2532 23.9502 33.8603 24.2336 33.5669L38.6893 19.1111H33.1111ZM16 22.2222C16 21.3971 16.3278 20.6058 16.9112 20.0223C17.4947 19.4389 18.286 19.1111 19.1111 19.1111H26.8889C27.3014 19.1111 27.6971 19.275 27.9888 19.5667C28.2806 19.8584 28.4444 20.2541 28.4444 20.6667C28.4444 21.0792 28.2806 21.4749 27.9888 21.7666C27.6971 22.0583 27.3014 22.2222 26.8889 22.2222H19.1111V40.8889H37.7778V33.1111C37.7778 32.6986 37.9417 32.3029 38.2334 32.0112C38.5251 31.7194 38.9208 31.5556 39.3333 31.5556C39.7459 31.5556 40.1416 31.7194 40.4333 32.0112C40.725 32.3029 40.8889 32.6986 40.8889 33.1111V40.8889C40.8889 41.714 40.5611 42.5053 39.9777 43.0888C39.3942 43.6722 38.6029 44 37.7778 44H19.1111C18.286 44 17.4947 43.6722 16.9112 43.0888C16.3278 42.5053 16 41.714 16 40.8889V22.2222Z" fill="black"/>
</g>
</svg>
