<svg width="60" height="60" viewBox="0 0 60 60" fill="none" xmlns="http://www.w3.org/2000/svg">
<g id="Group 797">
<circle id="Ellipse 39" cx="30" cy="30" r="29" stroke="#910000" stroke-width="2"/>
<path id="Vector" d="M23 20C21.075 20 19.36 20.8094 18.065 22.0762C16.805 23.3431 16 25.0674 16 27.0381C16 28.9736 16.805 30.6979 18.065 32L30 44L41.935 32C43.195 30.7331 44 29.0088 44 27.0381C44 25.1026 43.195 23.3783 41.935 22.0762C40.675 20.8094 38.96 20 37 20C35.075 20 33.36 20.8094 32.065 22.0762C30.805 23.3431 30 25.0674 30 27.0381C30 25.1026 29.195 23.3783 27.935 22.0762C26.675 20.8094 24.96 20 23 20Z" fill="#DA2727"/>
</g>
</svg>
