<svg width="15" height="12" viewBox="0 0 15 12" fill="none" xmlns="http://www.w3.org/2000/svg">
<path id="Vector" d="M3.53807 0C2.57423 0 1.71554 0.404692 1.06714 1.03812C0.436263 1.67155 0.0332031 2.53372 0.0332031 3.51906C0.0332031 4.4868 0.436263 5.34897 1.06714 6L7.04294 12L13.0187 6C13.6496 5.36657 14.0527 4.5044 14.0527 3.51906C14.0527 2.55132 13.6496 1.68915 13.0187 1.03812C12.3879 0.404692 11.5292 0 10.5478 0C9.58397 0 8.72528 0.404692 8.07688 1.03812C7.446 1.67155 7.04294 2.53372 7.04294 3.51906C7.04294 2.55132 6.63988 1.68915 6.009 1.03812C5.37813 0.404692 4.51943 0 3.53807 0Z" fill="#848484"/>
</svg>
