<svg width="36" height="26" viewBox="0 0 36 26" fill="none" xmlns="http://www.w3.org/2000/svg">
<g id="&#240;&#159;&#166;&#134; icon &#34;eye&#34;">
<path id="Vector" d="M23.4002 12.9727C23.4002 14.3749 22.8312 15.7196 21.8185 16.7111C20.8057 17.7026 19.4321 18.2597 17.9999 18.2597C16.5677 18.2597 15.1941 17.7026 14.1813 16.7111C13.1686 15.7196 12.5996 14.3749 12.5996 12.9727C12.5996 11.5705 13.1686 10.2257 14.1813 9.23419C15.1941 8.24269 16.5677 7.68567 17.9999 7.68567C19.4321 7.68567 20.8057 8.24269 21.8185 9.23419C22.8312 10.2257 23.4002 11.5705 23.4002 12.9727Z" fill="#848484"/>
<path id="Vector_2" d="M35.8101 12.1849C31.9255 4.57693 25.0276 0.636353 18 0.636353C10.9742 0.636353 4.07446 4.57693 0.189849 12.1849C0.0649968 12.4295 0 12.6992 0 12.9727C0 13.2461 0.0649968 13.5158 0.189849 13.7604C4.07446 21.3684 10.9724 25.309 18 25.309C25.0258 25.309 31.9255 21.3684 35.8101 13.7604C35.935 13.5158 36 13.2461 36 12.9727C36 12.6992 35.935 12.4295 35.8101 12.1849ZM18 21.7843C12.6555 21.7843 7.19582 18.9294 3.83324 12.9727C7.19582 7.01599 12.6537 4.16102 18 4.16102C23.3445 4.16102 28.8042 7.01599 32.1668 12.9727C28.8042 18.9294 23.3445 21.7843 18 21.7843Z" fill="#848484"/>
</g>
</svg>
