<svg width="36" height="32" viewBox="0 0 36 32" fill="none" xmlns="http://www.w3.org/2000/svg">
<g id="Layer_1" clip-path="url(#clip0_358_10)">
<path id="Vector" d="M19.2642 13.1482C19.2642 13.1482 20.5332 6.7172 25.323 1.1736" stroke="#D9D9D9" stroke-width="1.69" stroke-linecap="round" stroke-linejoin="round"/>
<path id="Vector_2" d="M19.2642 13.1482C19.2642 13.1482 22.2411 7.74768 29.817 4.85661" stroke="#D9D9D9" stroke-width="1.69" stroke-linecap="round" stroke-linejoin="round"/>
<path id="Vector_3" d="M19.2642 13.1482C19.2642 13.1482 18.4055 6.65041 13.9878 0.811026" stroke="#D9D9D9" stroke-width="1.69" stroke-linecap="round" stroke-linejoin="round"/>
<path id="Vector_4" d="M19.2641 13.1482C19.2641 13.1482 16.6402 7.56639 9.26465 4.19825" stroke="#D9D9D9" stroke-width="1.69" stroke-linecap="round" stroke-linejoin="round"/>
<path id="Vector_5" d="M34.4925 8.12934L24.1877 13.5298C24.1018 16.2491 21.8214 18.3864 19.1021 18.3006C16.3828 18.2147 14.2455 15.9343 14.3313 13.2149L4.99023 7.26107" stroke="#D9D9D9" stroke-width="3.18" stroke-linecap="round" stroke-linejoin="round"/>
<path id="Vector_6" d="M27.0595 27.9756C26.9355 27.2409 26.239 26.7448 25.5043 26.8688L19.6458 27.8611C19.0924 27.9565 18.5295 27.947 17.9856 27.842L13.1481 26.8974C12.5469 26.7829 12.1557 26.1914 12.2702 25.5902C12.3752 25.0273 12.8904 24.6361 13.4534 24.6838L16.0964 24.9223C16.936 24.9987 17.6707 24.3689 17.7471 23.5197C17.8234 22.6706 17.2032 21.9168 16.3635 21.85L12.7473 21.5256C12.1271 21.4683 11.5069 21.516 10.9058 21.6496L4.00732 23.243V29.0252L13.9114 31.5441C14.5888 31.7159 15.2949 31.735 15.9819 31.5918L25.9623 29.55C26.6874 29.4164 27.174 28.7103 27.05 27.9756H27.0595Z" fill="#D9D9D9"/>
<path id="Vector_7" d="M25.972 29.5595L15.9916 31.6014C15.3047 31.7445 14.5986 31.7254 13.9211 31.5441L4.01709 29.0252V27.842L13.8925 30.3514C14.57 30.5232 15.276 30.5327 15.963 30.3992L25.9434 28.3573C26.4014 28.2809 26.7544 27.9756 26.9262 27.5844C26.993 27.6989 27.0407 27.842 27.0598 27.9756C27.1933 28.7103 26.7067 29.4164 25.972 29.55V29.5595Z" fill="#D9D9D9"/>
<path id="Vector_8" d="M3.79751 21.0008H0.763318C0.341749 21.0008 0 21.3425 0 21.7641V29.5023C0 29.9238 0.341749 30.2656 0.763318 30.2656H3.79751C4.21908 30.2656 4.56083 29.9238 4.56083 29.5023V21.7641C4.56083 21.3425 4.21908 21.0008 3.79751 21.0008Z" fill="#D9D9D9"/>
</g>
<defs>
<clipPath id="clip0_358_10">
<rect width="36" height="31.6968" fill="white"/>
</clipPath>
</defs>
</svg>
