<svg width="20" height="20" viewBox="0 0 20 20" fill="none" xmlns="http://www.w3.org/2000/svg">
<path id="Vector" d="M12.7714 0.00759672C12.2286 0.0647179 11.7143 0.436005 11.4286 0.978656C11.0571 1.72123 8.31429 7.23342 7.77143 7.77607C7.22857 8.31872 6.51429 8.57577 5.71429 8.57577V20H15.7143C16.3143 20 16.8286 19.6287 17.0571 19.1146C17.0571 19.1146 20 10.8035 20 10.0038C20 9.2041 19.3714 8.57577 18.5714 8.57577H14.2857C13.4857 8.57577 12.8571 7.86176 12.8571 7.14774C12.8571 6.43373 13.9714 2.63517 14.2 1.89259C14.4286 1.15002 14.0571 0.350324 13.3143 0.0932784C13.1143 0.0361573 12.9714 -0.0209639 12.7714 0.00759672ZM0 8.57577V20H2.85714V8.57577H0Z" fill="#D9D9D9"/>
</svg>
