<svg width="16" height="16" viewBox="0 0 16 16" fill="none" xmlns="http://www.w3.org/2000/svg">
<path id="Vector" d="M11.8161 0.260258C11.9828 0.0936147 12.2089 0 12.4446 0C12.6803 0 12.9064 0.0936147 13.073 0.260258L15.7397 2.92696C15.9064 3.09365 16 3.3197 16 3.55541C16 3.79111 15.9064 4.01717 15.7397 4.18386L7.73965 12.184C7.57299 12.3507 7.34693 12.4444 7.1112 12.4444H4.4445C4.20875 12.4444 3.98265 12.3508 3.81595 12.1841C3.64925 12.0173 3.5556 11.7913 3.5556 11.5555V8.8888C3.55565 8.65307 3.64933 8.42702 3.81605 8.26035L11.8161 0.260258ZM5.3334 9.25681V10.6666H6.74319L13.8544 3.55541L12.4446 2.14561L5.3334 9.25681ZM0 3.55541C0 3.08391 0.187303 2.63172 0.520705 2.29831C0.854107 1.96491 1.3063 1.77761 1.7778 1.77761H6.2223C6.45805 1.77761 6.68414 1.87126 6.85084 2.03796C7.01754 2.20466 7.1112 2.43076 7.1112 2.66651C7.1112 2.90226 7.01754 3.12835 6.85084 3.29506C6.68414 3.46176 6.45805 3.55541 6.2223 3.55541H1.7778V14.2222H12.4446V9.7777C12.4446 9.54195 12.5382 9.31586 12.7049 9.14916C12.8716 8.98246 13.0977 8.8888 13.3335 8.8888C13.5692 8.8888 13.7953 8.98246 13.962 9.14916C14.1287 9.31586 14.2224 9.54195 14.2224 9.7777V14.2222C14.2224 14.6937 14.0351 15.1459 13.7017 15.4793C13.3683 15.8127 12.9161 16 12.4446 16H1.7778C1.3063 16 0.854107 15.8127 0.520705 15.4793C0.187303 15.1459 0 14.6937 0 14.2222V3.55541Z" fill="#848484"/>
</svg>
